<svg xmlns="http://www.w3.org/2000/svg" viewBox="0 0 120 220" width="120" height="220">
  <!-- Flat-vector character v4: same v1-v3 geometry (same id/viewBox/paths),
       now multi-tone (skin + costume + trim) with a dark outline stroke —
       the Infographics-Show hallmark ("flat colors + black outline") that
       the v3 single-fill silhouette was missing. `color` (set by the
       caller/template) still drives the costume/trim tint via currentColor,
       same as v3; skin and neutral trim are fixed tones. FactForge
       project-original asset (CC0). -->
  <g stroke="#152A4D" stroke-width="4" stroke-linejoin="round" stroke-linecap="round">
    <path fill="currentColor" d="M46 16 L52 2 L58 16 Z"/>
    <path fill="currentColor" d="M54 12 L60 0 L66 12 Z"/>
    <path fill="currentColor" d="M62 16 L68 2 L74 16 Z"/>
    <circle fill="#F0B285" cx="60" cy="36" r="24"/>
    <rect fill="currentColor" x="30" y="60" width="60" height="86" rx="26"/>
    <rect fill="#F0B285" x="10" y="64" width="20" height="76" rx="10"/>
    <rect fill="#F0B285" x="90" y="64" width="20" height="76" rx="10"/>
    <rect fill="#33384A" x="34" y="146" width="22" height="66" rx="11"/>
    <rect fill="#33384A" x="64" y="146" width="22" height="66" rx="11"/>
    <rect fill="#6B4A2F" x="30" y="206" width="30" height="12" rx="6"/>
    <rect fill="#6B4A2F" x="60" y="206" width="30" height="12" rx="6"/>
    <circle fill="currentColor" fill-opacity="0.95" cx="12" cy="112" r="17"/>
  </g>
</svg>
