<svg xmlns="http://www.w3.org/2000/svg" viewBox="0 0 120 220" width="120" height="220">
  <!-- Flat-vector pictogram warrior v3 (blocky rounded body + helmet-crest
       spikes + round shield) — replaces the fine documentary-silhouette v2:
       this style stays readable under rotation (fall animation) and at small
       chip sizes. FactForge project-original asset (CC0). Same id/viewBox as
       v1/v2. -->
  <g fill="currentColor">
    <path d="M46 16 L52 2 L58 16 Z"/>
    <path d="M54 12 L60 0 L66 12 Z"/>
    <path d="M62 16 L68 2 L74 16 Z"/>
    <circle cx="60" cy="36" r="24"/>
    <rect x="30" y="60" width="60" height="86" rx="26"/>
    <rect x="10" y="64" width="20" height="76" rx="10"/>
    <rect x="90" y="64" width="20" height="76" rx="10"/>
    <rect x="34" y="146" width="22" height="66" rx="11"/>
    <rect x="64" y="146" width="22" height="66" rx="11"/>
    <rect x="30" y="206" width="30" height="12" rx="6"/>
    <rect x="60" y="206" width="30" height="12" rx="6"/>
    <circle cx="12" cy="112" r="17" fill-opacity="0.9"/>
  </g>
</svg>
