<svg xmlns="http://www.w3.org/2000/svg" viewBox="0 0 120 40" width="120" height="40">
  <!-- Horizontal laurel branch ornament (grows left->right, shrinking leaves).
       Mirror with scaleX(-1) for the opposite side of a divider.
       FactForge project-original asset (CC0). Fill inherits currentColor. -->
  <g fill="currentColor">
    <!-- tapering stem -->
    <path d="M2 20 Q60 17 118 19.4 L118 20.6 Q60 21 2 23 Z"/>
    <!-- leaf pairs, large at base (left) to small at tip (right) -->
    <path d="M8 20 Q15 4 28 3 Q20 16 10 21 Z"/>
    <path d="M10 22 Q18 36 30 37 Q22 24 12 21 Z"/>
    <path d="M30 19.5 Q36 6 47 5 Q40 16 32 20.5 Z"/>
    <path d="M32 21.5 Q39 34 49 35 Q42 24 34 20.5 Z"/>
    <path d="M50 19.5 Q55 8 64 7 Q58 17 52 20.3 Z"/>
    <path d="M52 21 Q57 32 66 33 Q60 23 54 20.7 Z"/>
    <path d="M68 19.6 Q72 10 80 9 Q75 17 70 20.2 Z"/>
    <path d="M70 20.8 Q74 30 82 31 Q77 23 72 20.4 Z"/>
    <path d="M84 19.7 Q87 12 94 11 Q90 17 86 20.1 Z"/>
    <path d="M86 20.5 Q89 28 96 29 Q92 22 88 20.3 Z"/>
    <path d="M98 19.8 Q101 14 107 13.5 Q103 18 100 20 Z"/>
    <path d="M100 20.4 Q103 26 109 26.5 Q105 22 102 20.2 Z"/>
    <!-- tip leaf -->
    <path d="M108 20 Q113 15 118 20 Q113 25 108 20 Z"/>
  </g>
</svg>
